<svg viewBox="0 0 369.6619034124987 94.98959853585484" class="css-1j8o68f">
  <defs id="SvgjsDefs1259"></defs>
  <g
    id="SvgjsG1260"
    featurekey="Df7oLJ-0"
    transform="matrix(1.1332685188594207,0,0,1.1332685188594207,-20.494027480038437,-9.167992263593643)"
    fill="#00adb5"
  >
    <g xmlns="http://www.w3.org/2000/svg">
      <path
        fill="#00adb5"
        d="M75.831,81.262c-0.461,4.555-4.121,7.827-8.179,7.309l-34.53-4.418c-4.055-0.521-6.968-4.632-6.507-9.187   l6.035-59.515c0.464-4.555,4.123-7.826,8.182-7.307l34.529,4.417c4.057,0.52,6.969,4.632,6.506,9.187L75.831,81.262z"
      ></path>
      <path
        fill="#00adb5"
        d="M28.725,87.08c-4.055-0.519-6.969-4.632-6.508-9.187l6.036-59.514c0.108-1.073,0.401-2.072,0.829-2.969   h-3.607c-4.083,0-7.391,3.716-7.391,8.301v59.896c0,4.586,3.308,8.302,7.391,8.302h34.754c0.866,0,1.693-0.177,2.467-0.484   L28.725,87.08z"
      ></path>
    </g>
  </g>
  <g
    id="SvgjsG1261"
    featurekey="Ua4uQk-0"
    transform="matrix(3.0378763542348715,0,0,3.0378763542348715,88.35454750577476,7.772747668880083)"
    fill="#00adb5"
  >
    <path
      d="M6.4 6 c3.96 0 7.1 3.12 7.1 6.9 c0 3.98 -3.14 7.1 -7.1 7.1 l-5.2 0 l0 -14 l5.2 0 z M6.38 16.96 c2.54 0 3.82 -1.84 3.82 -4.06 c0 -2.02 -1.28 -3.86 -3.82 -3.86 l-1.96 0 l0 7.92 l1.96 0 z M18.72 17.04 l5.74 0 l0 2.96 l-6.14 0 l-2.82 0 l0 -14 l3.22 0 l5.56 0 l0 2.96 l-5.56 0 l0 2.54 l4.16 0 l0 2.9 l-4.16 0 l0 2.64 z M35.5 6 l0 9.26 c0 3.7 -3.14 4.98 -5.08 4.98 c-2.24 0 -3.56 -0.86 -4.46 -1.94 l1.92 -2.38 c0.48 0.52 1.32 1.22 2.36 1.22 c0.58 0 2.04 -0.22 2.04 -2.32 l0 -8.82 l3.22 0 z M49.06 20 l-0.98 -2.32 l-6.58 0 l-0.98 2.32 l-3.42 0 l6.22 -14 l2.94 0 l6.22 14 l-3.42 0 z M42.620000000000005 15.059999999999999 l4.36 0 l-2.18 -5.16 z M65.24000000000001 6 l3.42 0 l-6.22 14 l-2.94 0 l-6.22 -14 l3.42 0 l4.28 10.1 z M78.02000000000001 6 l3.22 0 l0 8.92 c0 3.38 -2.52 5.38 -5.48 5.38 c-2.98 0 -5.5 -2 -5.5 -5.38 l0 -8.92 l3.22 0 l0 8.94 c0 1.92 1.3 2.34 2.28 2.34 s2.26 -0.42 2.26 -2.34 l0 -8.94 z M86.86 17.04 l5.74 0 l0 2.96 l-6.14 0 l-2.82 0 l0 -14 l3.22 0 l5.56 0 l0 2.96 l-5.56 0 l0 2.54 l4.16 0 l0 2.9 l-4.16 0 l0 2.64 z"
    ></path>
  </g>
</svg>
